<?xml version="1.0" standalone="no"?>
<!DOCTYPE svg PUBLIC "-//W3C//DTD SVG 1.1//EN" "http://www.w3.org/Graphics/SVG/1.1/DTD/svg11.dtd" >
<svg xmlns="http://www.w3.org/2000/svg">
<metadata>
This is a custom SVG webfont generated by Font Squirrel.
Copyright   :  Graham Meade All rights reserved gemc031aonenetau
Designer    : Graham Meade
</metadata>
<defs>
<font id="webfontn9UZ3gum" horiz-adv-x="1067" >
<font-face units-per-em="2048" ascent="1638" descent="-410" />
<missing-glyph horiz-adv-x="1275" />
<glyph unicode=" "  horiz-adv-x="1275" />
<glyph unicode="&#x09;" horiz-adv-x="1275" />
<glyph unicode="&#xa0;" horiz-adv-x="1275" />
<glyph unicode="!" horiz-adv-x="628" d="M252 96q0 -96 47 -112l86 -86q12 -12 33 -13q59 0 59 111q0 72 -24 96l-84 84q-16 37 -54 37q-63 0 -63 -117zM254 1491l18 -1145h13l96 -96h78l18 1132l-96 97v12h-127zM272 96q0 96 43 97q45 0 45 -97q0 -96 -45 -96q-43 0 -43 96zM274 1470h86l-18 -1103h-49z" />
<glyph unicode="&#x22;" horiz-adv-x="530" d="M82 961h12l96 -97h99v482l-96 96v12h-111v-493zM102 981v453h70v-453h-70zM338 961h12l96 -97h99v482l-96 96v12h-111v-493zM358 981v453h70v-453h-70z" />
<glyph unicode="#" horiz-adv-x="1093" d="M74 485h14l96 -96h4l-45 -131h15l96 -96h125l84 227h98l-45 -131h14l97 -96h127l80 227h174l26 103l-98 96l4 12h-35l56 154l143 -2l35 102l-99 98l4 11h-6l41 116l-98 99l4 10h-137l-82 -223h-98l43 114l-99 99l4 10h-139l-82 -223l-176 -2l-37 -115h15l96 -96h24 l-53 -152h-153zM102 506l23 74h154l106 290l-174 -2l22 74l177 2l82 223h96l-82 -223h274l82 223h94l-79 -223l139 -2l-25 -74l-143 2l-103 -290h168l-20 -74h-172l-80 -227h-96l82 227h-277l-84 -227h-94l82 227h-152zM379 580h272l101 290h-273zM539 600l53 154h96 l-53 -154h-96z" />
<glyph unicode="$" horiz-adv-x="1173" d="M72 469q16 -256 157 -389q18 -23 43 -37l58 -55l2 -2q20 0 49 -29q39 -35 47 -41v-149h12l97 -97h102v58l57 -58h103v191q164 25 264 112q137 113 137 316q0 147 -96 243l-4 5v-2l-43 43q-43 70 -117 116q-39 25 -141 64v557q63 -18 96 -39q59 -86 61 -223h13l96 -97h94 q-8 213 -125 326l-55 53q-70 102 -180 146v149l-97 96v13h-114v-58l-45 45v13h-115v-230q-147 -37 -231 -135q-88 -100 -88 -254q0 -160 110 -258q18 -18 37 -28l57 -60q6 -6 13 -10q41 -43 131 -76l-29 8v-618q-47 16 -88 47q-53 94 -64 235l-96 95v14h-108zM92 449h68 q12 -195 131 -308q68 -63 158 -92v621l73 -21v-614q37 -6 74 -6h12v569l74 -18v-545q145 23 233 106q98 92 99 232q0 170 -137 256q-49 29 -295 106l-27 8q-268 84 -322 134q-104 94 -104 243q0 172 121 281q80 72 199 92v225h73v-215q8 2 25 2h43q12 0 18 -2v215h74v-223 q162 -25 257 -139.5t103 -282.5h-65q-4 141 -82 238.5t-213 124.5v-574l-74 21v565h-63q-16 0 -23 -2v-533l-73 21v502q-254 -61 -254 -316q0 -115 90 -198q59 -53 290 -119q4 -2 11.5 -3t17.5 -5l84 -25q49 -14 113 -35q43 -16 74.5 -30.5t52.5 -28.5q156 -98 155 -285 q0 -180 -114 -291q-102 -100 -287 -125v-188h-74v184h-14q-16 0 -34.5 1t-37.5 3v-188h-73v201q-164 37 -256 166q-89 119 -101 295zM311 1018q0 168 117 246v-346l14 -5l68 -71q-53 14 -97 31.5t-79 37.5q-23 46 -23 107zM543 655v4q45 -20 110 -32l27 -9l70 -20l69 -20 l74 -27q33 -12 59 -27q41 -66 41 -151q0 -199 -194 -285v401l-97 97v12l-114 27v-15zM600 815h2h-2zM639 807v18l25 -24zM1098 537h2l-2 2v-2z" />
<glyph unicode="%" horiz-adv-x="1488" d="M72 1120q0 -141 78 -250q41 -55 86 -84l57 -57q78 -78 186 -78q98 0 174 64l-340 -733h17l96 -97h102l723 1567l-98 96l6 13h-115l-270 -584q0 10 2 20v21q0 143 -76 246l-36 43l-56 55q-2 2 -3 4t-3 4q-90 123 -225 123q-139 0 -225 -121q-80 -109 -80 -252zM92 1120 q0 135 74 238q84 115 211 115q129 0 209 -115q74 -104 73 -238q0 -135 -71 -237q-80 -115 -211 -115q-127 0 -211 115q-74 100 -74 237zM156 1120q0 -106 55 -192q63 -98 166 -99q98 0 164 99q55 86 55 192q0 109 -55 193q-61 96 -164 96q-104 0 -166 -96q-55 -84 -55 -193z M272 1018q0 104 52 182q57 92 155 92q23 0 53 -10q43 -74 43 -162q0 -96 -53 -180h2q-59 -90 -147 -90q-39 0 -72 16q-33 68 -33 152zM346 0l711 1540h69l-708 -1540h-72zM811 358q0 -141 76 -247q37 -51 82 -82l61 -60q78 -78 187 -78q139 0 223 115q76 106 76 250 q0 176 -115 291l-53 53q-2 2 -3.5 4t-3.5 4q-88 125 -227 125q-141 0 -227 -121q-76 -107 -76 -254zM831 358q0 137 72 240q80 115 211 115q127 0 211 -117q74 -102 74 -238q0 -137 -72 -239q-80 -113 -213 -113q-127 0 -211 115q-72 102 -72 237zM895 358q0 -111 53 -192 q66 -96 166 -96t166 96q53 84 53 192q0 111 -53 193q-66 96 -166 96q-109 0 -166 -94q-53 -84 -53 -195zM1012 256q0 111 51 186q57 88 154 88q35 0 53 -8q43 -78 43 -164q0 -96 -51 -178h2q-59 -90 -150 -90q-39 0 -72 16q-30 74 -30 150z" />
<glyph unicode="&#x26;" horiz-adv-x="1247" d="M92 387q0 -201 135 -324q20 -23 43 -36l64 -60q121 -121 334 -121q244 0 428 211l65 -75h8l97 -97h118l-219 269q92 160 97 421l-97 97v12h-104q0 -199 -53 -328q-66 -152 -220 -243q-121 -72 -241 -72q-113 0 -203 59q-47 84 -47 195q0 131 113 246q47 49 116.5 93 t163.5 83q305 129 305 377q0 131 -77 209l-66 63q-84 127 -256 127q-143 0 -229 -84t-86 -227q0 -84 71 -185q47 -63 88 -92l21 -20q-369 -172 -369 -490v-8zM113 395q8 346 444 508q-20 -4 -27 -4q-86 0 -161 111q-68 94 -68 172q0 135 80 213t215 78q129 0 206 -74 t77 -203q0 -240 -297 -365q-193 -82 -285 -178q-117 -123 -117 -256q0 -164 100.5 -270.5t266.5 -106.5q139 0 266 80q131 84 195 209q74 137 73 355h64q-4 -246 -98 -408l206 -256h-84l-161 197q-190 -233 -443 -234q-197 0 -327 117q-127 118 -125 315zM371 1210 q0 -88 65 -172q68 -82 156 -82q4 0 12 1t19 4q68 2 133 86q59 78 59 149q0 100 -63.5 159.5t-163.5 59.5q-92 0 -154.5 -56.5t-62.5 -148.5zM487 1108q0 86 58.5 138t144.5 52q55 0 86 -14q18 -41 19 -88q0 -80 -66 -149q-66 -66 -106 -66h-5q-10 -2 -16 -3t-10 -1 q-41 0 -78 18q-27 52 -27 113z" />
<glyph unicode="'" horiz-adv-x="274" d="M82 961h12l96 -97h99v482l-96 96v12h-111v-493zM102 981v453h70v-453h-70z" />
<glyph unicode="(" horiz-adv-x="589" d="M178 528q0 -514 326 -995h8l96 -96h105q-330 489 -330 997q0 504 311 944l-98 97q2 2 4 6t4 6h-123q-303 -451 -303 -959zM199 528q0 504 293 938h71q-297 -420 -297 -929q0 -512 318 -983h-70q-315 464 -315 974z" />
<glyph unicode=")" horiz-adv-x="589" d="M-4 -438l12 -29h10l97 -96h78q324 483 323 989q0 506 -299 952l-84 82q-4 8 -8 15l-8 12h-121q315 -446 315 -950q0 -506 -315 -975zM12 -446q319 469 320 983q0 510 -297 929h71q293 -434 293 -938q0 -500 -317 -974h-70z" />
<glyph unicode="*" horiz-adv-x="1024" d="M217 1044q0 -31 27 -36l90 -88q8 -8 26 -9q37 0 99 31q12 -78 47 -84l86 -86q10 -10 22 -10q51 0 52 170q0 23 -1 41t-3 35q29 -23 63 -37l2 -2q94 -57 141 -58q35 0 35 31q0 18 -22 41l-78 76q-10 25 -49 55l24 14q125 74 125 113q0 14 -8 23l-88 88q-10 29 -41 28 q-33 0 -107 -37q-6 45 -22 68l-86 84q-12 35 -39 35q-57 0 -57 -176v-35q0 -20 2 -31q-6 4 -15.5 9.5t-21.5 13.5h4q-119 70 -166 69q-41 0 -41 -37q0 -33 72 -86l59 -57q4 -6 21 -22l-15 -8q-6 -3 -10 -7q-127 -74 -127 -119zM238 1044q0 33 116 101q63 37 105 49 q-41 12 -105 49q-117 68 -116 100q0 16 20 17q31 0 133 -55l53 -32q25 -15 41 -32q-4 23 -7 50.5t-3 62.5q0 156 37 155q37 0 37 -155q0 -35 -3 -62.5t-7 -50.5q16 14 39.5 30.5t54.5 33.5q98 55 133 55q20 0 20 -17q0 -33 -116 -100q-66 -37 -105 -49q39 -12 105 -49 q117 -68 116 -101q0 -16 -20 -16q-35 0 -133 55q-31 16 -54.5 33t-39.5 31q4 -23 7 -50.5t3 -62.5q0 -156 -37 -155q-37 0 -37 155q0 35 3 62.5t7 50.5q-16 -16 -41 -32l-53 -32q-102 -55 -133 -55q-20 0 -20 16zM506 1194l4 -4h4l4 4l-4 4h-4z" />
<glyph unicode="+" horiz-adv-x="1705" d="M233 559h13l96 -96h461v-481h12l96 -97h90v578h568v90l-96 96v13h-472v471l-96 96v12h-102v-579h-570v-103zM254 580v61h569v580h62v-580h567v-61h-567v-580h-62v580h-569z" />
<glyph unicode="," horiz-adv-x="532" d="M154 104q0 -66 57 -98l33 -31v-237h12l96 -96h101v479l-97 96v12h-112v-12q-90 -25 -90 -113zM174 104q0 39 26.5 69t63.5 30v6h72v-451h-72v248q-37 0 -63.5 30.5t-26.5 67.5z" />
<glyph unicode="-" horiz-adv-x="1234" d="M233 559h13l96 -96h817v90l-96 96v13h-830v-103zM254 580v61h788v-61h-788z" />
<glyph unicode="." horiz-adv-x="581" d="M211 84q0 -96 47 -113l86 -86q12 -12 35 -12q59 0 59 111q0 70 -24 94l-82 82q-14 39 -56 39q-65 0 -65 -115zM231 84q0 94 45 94t46 -94q0 -94 -46 -94q-45 0 -45 94z" />
<glyph unicode="/" horiz-adv-x="598" d="M-63 -188h16l94 -97h103l657 1708l-96 97l4 12h-117zM-31 -168l643 1679h70l-645 -1679h-68z" />
<glyph unicode="0" d="M59 696q0 -518 240 -686l57 -55q109 -109 279 -109q262 0 383 258q86 190 86 490q0 453 -189 641l-55 55q-119 162 -328 162q-264 0 -385 -262q-88 -191 -88 -494zM80 696q0 289 84 480q115 256 368 256q256 0 371 -256q84 -190 84 -480q0 -289 -84 -481 q-115 -252 -371 -252t-368 254q-84 190 -84 479zM150 696q0 -260 65 -432q96 -244 320 -244q383 0 383 676q0 674 -383 674q-225 0 -320 -242q-65 -172 -65 -432zM266 594q0 262 64 426h2q92 233 305 233q78 0 143 -34q31 -41 54 -101q63 -160 63 -422q0 -655 -362 -655 q-98 0 -168 49q-20 37 -35 78h-2q-64 176 -64 426zM332 461l35 -23l77 -78l74 -47l297 492l-98 96l6 8l-86 56zM362 467l281 467l49 -31l-280 -467z" />
<glyph unicode="1" d="M303 963l10 12l99 -98l129 147l2 -1042h12l96 -97h97v1418l-97 96v12h-80l-10 10l-258 -303v-155zM324 1018v92l237 283l2 -2h68v-1391h-68l-2 1290z" />
<glyph unicode="2" d="M18 -18h21l96 -97h932v90l-96 95v12h-522l555 614l-5 2q76 106 76 246q0 184 -106 285l-58 55q-111 166 -352 166q-205 0 -320.5 -115.5t-115.5 -320.5v-39h12l96 -96h101v36q0 156 87 245t243 89q92 0 159 -37q43 -72 43 -172q0 -127 -78 -215zM66 0l735 811 q84 94 84 229q0 150 -88 238t-238 88q-162 0 -253 -93t-91 -255v-23h-72v19q0 199 108.5 307.5t307.5 108.5q184 0 291.5 -101.5t107.5 -281.5q0 -156 -92 -263h2l-651 -723h733v-61h-884z" />
<glyph unicode="3" d="M80 311q35 -201 168 -295l59 -55q113 -111 316 -111q211 0 338 119q131 117 131 326q0 162 -101 293l-14 17l-14 16l-52 49q0 2 -22 30q160 61 160 308q0 141 -84 225l-64 61q-14 20 -31.5 40t-40.5 36q-102 78 -280 78q-330 0 -418 -283l23 -12l88 -86l88 -43 q68 225 307 225q109 0 180 -30q23 -51 23 -111q0 -258 -324 -258h-37l-69 2l14 -109h10l98 -96q16 2 28.5 3t21.5 1h26q135 0 217 -51q57 -82 58 -211q0 -156 -105 -248q-102 -92 -260 -92q-119 0 -194 49q-35 68 -43 148l-97 96q-2 2 -2 16zM104 299l62 29 q47 -299 352 -299q166 0 275 98q111 98 110 262q0 180 -108.5 279.5t-288.5 99.5h-33q-20 0 -31 -2l-10 65l47 -2q381 -16 381 279q0 258 -325 258q-252 0 -318 -219l-59 29q80 252 391 251q166 0 268 -73q115 -84 115 -244q0 -291 -238 -313q127 -29 207 -150 q74 -115 74 -250q0 -102 -33 -182t-93.5 -135t-144 -84t-184.5 -29q-355 0 -416 332z" />
<glyph unicode="4" d="M53 418l31 -68h10l96 -96h539v-272h12l97 -97h94v369h158v90l-97 96v13h-61v850l-96 96v12l-103 -2zM76 416l667 973l72 2v-959h158v-61h-158v-371h-65v371h-654zM166 430h586v846zM371 451l360 518v-518h-360z" />
<glyph unicode="5" d="M76 379q20 -248 178 -365l61 -57q115 -113 306 -113q106 0 193 33t146.5 94.5t92 148.5t32.5 195q0 223 -118 336l-64 62q-121 178 -366 178q-109 0 -207 -41v362h698v91l-96 96v12h-807l2 -768h12l97 -96h77q113 147 314 147q109 0 190 -45q61 -96 62 -223 q0 -174 -95.5 -279.5t-269.5 -105.5q-117 0 -190 49q-39 74 -45 180l-95 95q-2 2 -2 14h-106zM98 358h66q33 -338 350 -338q184 0 284.5 111t100.5 295q0 178 -98.5 281.5t-276.5 103.5q-209 0 -321 -147h-56l-2 727h766v-62h-698v-575q119 117 324 116q203 0 315 -125 q117 -127 117 -327q0 -209 -123 -334q-121 -123 -328 -123q-186 0 -294 105.5t-126 291.5z" />
<glyph unicode="6" d="M76 662q0 -498 225 -650l53 -51q115 -115 308 -115q203 0 319 146q109 133 109 338q0 244 -136 372l-53 52l-8 12q-104 158 -336 158q-156 0 -256 -80q72 403 373 403q78 0 145 -28q16 -31 29.5 -70t21.5 -86h13l96 -96h94q-18 190 -106 266l-15 12q2 0 2 -2l-47 49 q-18 31 -49 58q-109 98 -274 98q-508 0 -508 -786zM96 662q0 766 488 765q166 0 260 -89t110 -255h-65q-41 281 -318 281q-406 0 -405 -686v-62v-22q0 -10 2 -19q80 328 389 328q203 0 313 -137q102 -127 103 -334q0 -203 -105 -332q-111 -137 -309 -137q-463 1 -463 699z M205 434q0 -172 82 -284q88 -125 258 -125q172 0 268 120q88 109 88 287q0 180 -82 287q-92 123 -264 123q-168 0 -264 -121q-86 -111 -86 -287zM322 332q0 164 84 278h-3q92 115 254 115q86 0 158 -39q66 -102 66 -254q0 -174 -82 -274q-92 -113 -254 -113q-96 0 -166 43 q-57 101 -57 244z" />
<glyph unicode="7" d="M98 1305h13l96 -97l606 -2l-428 -1224h14l97 -97h100l500 1420l-99 98l4 10h-120v-2h-783v-106zM119 1325v66h782v2h72l-490 -1393h-69l465 1323z" />
<glyph unicode="8" d="M70 387q0 -233 174 -364l61 -58q119 -117 324 -117q104 0 190 30t147.5 87.5t94.5 140t33 187.5q0 180 -103 278l-65 64q-18 27 -43 49q152 102 151 287q0 164 -98 260l-57 55q-16 33 -56 66q-109 98 -291 98q-178 0 -288 -98q-117 -102 -117 -279q0 -195 147 -289 l23 -22q-227 -115 -227 -375zM90 387q0 281 270 377q-213 90 -213 309q0 168 111 264q104 92 274 93q170 0 277 -91q109 -96 109 -266q0 -215 -211 -309q270 -90 270 -369q0 -102 -32 -182t-91 -135t-142 -84t-186 -29q-199 0 -317.5 112.5t-118.5 309.5zM162 397 q0 -168 101.5 -267t268.5 -99q84 0 153 26.5t118 73.5t75.5 114.5t26.5 147.5q0 166 -103.5 251t-269.5 85q-168 0 -264 -82q-106 -88 -106 -250zM221 1079q0 -137 85 -212.5t226 -75.5q137 0 225.5 76.5t88.5 211.5q0 68 -23.5 122t-64.5 91t-99.5 57.5t-126.5 20.5 q-141 0 -226 -77t-85 -214zM279 295q0 158 102 242q90 76 254 75q119 0 207 -45q43 -74 43 -174q0 -160 -96.5 -251t-256.5 -91q-123 0 -213 60q-40 78 -40 184zM338 977q0 131 81 203.5t216 72.5q92 0 156 -34q35 -59 34 -140q0 -129 -81.5 -198.5t-211.5 -69.5 q-102 0 -172 41q-22 49 -22 125z" />
<glyph unicode="9" d="M76 954q0 -205 100 -336h-2q43 -55 84 -83l64 -62q109 -106 290 -106q141 0 250 79q-68 -403 -366 -403q-100 0 -164 39q-29 49 -39 133l-94 94q-2 2 -2 15h-107q16 -193 119 -287q29 -25 41 -33l57 -55l8 -8q102 -94 271 -95q504 0 504 777q0 430 -172 602l-52 51 q-123 172 -358 172q-209 0 -326 -150q-106 -137 -106 -344zM96 954q0 201 103 332q111 141 309 141q465 0 465 -702q0 -762 -490 -762q-166 0 -261 89t-109 251h65q41 -281 318 -280q406 0 405 686v57v25q0 10 -2 20q-80 -328 -389 -328q-203 0 -313 138q-101 124 -101 333z M166 954q0 -174 84 -286q92 -123 262 -123q166 0 264 123q88 109 88 284q0 176 -82 285q-92 125 -260 125q-172 0 -268 -121q-88 -109 -88 -287zM283 852q0 176 84 278q96 115 258 115q84 0 149 -35q70 -102 70 -258q0 -164 -82 -270q-90 -117 -250 -117q-96 0 -174 47 q-55 95 -55 240z" />
<glyph unicode=":" horiz-adv-x="581" d="M211 84q0 -96 47 -113l86 -86q12 -12 35 -12q59 0 59 111q0 70 -24 94l-82 82q-14 39 -56 39q-65 0 -65 -115zM211 893q0 -98 47 -115l86 -86q12 -12 35 -12q59 0 59 111q0 74 -24 98l-2 2v-2l-2 2h2l-82 82q-16 37 -54 37q-65 0 -65 -117zM231 84q0 94 45 94t46 -94 q0 -94 -46 -94q-45 0 -45 94zM231 893q0 96 45 96t46 -96q0 -96 -46 -96q-45 0 -45 96z" />
<glyph unicode=";" horiz-adv-x="581" d="M154 104q0 -66 57 -98l33 -31v-237h12l96 -96h101v479l-97 96v12h-112v-12q-90 -25 -90 -113zM174 104q0 39 26.5 69t63.5 30v6h72v-451h-72v248q-37 0 -63.5 30.5t-26.5 67.5zM211 893q0 -98 47 -115l86 -86q12 -12 35 -12q59 0 59 111q0 74 -24 98l-2 2v-2l-2 2h2 l-82 82q-16 37 -54 37q-65 0 -65 -117zM231 893q0 96 45 96t46 -96q0 -96 -46 -96q-45 0 -45 96z" />
<glyph unicode="&#x37e;" horiz-adv-x="581" d="M154 104q0 -66 57 -98l33 -31v-237h12l96 -96h101v479l-97 96v12h-112v-12q-90 -25 -90 -113zM174 104q0 39 26.5 69t63.5 30v6h72v-451h-72v248q-37 0 -63.5 30.5t-26.5 67.5zM211 893q0 -98 47 -115l86 -86q12 -12 35 -12q59 0 59 111q0 74 -24 98l-2 2v-2l-2 2h2 l-82 82q-16 37 -54 37q-65 0 -65 -117zM231 893q0 96 45 96t46 -96q0 -96 -46 -96q-45 0 -45 96z" />
<glyph unicode="&#x3c;" horiz-adv-x="1089" d="M121 578l18 -11l90 -88l834 -399v100l-96 96v11l-516 250l612 290v101l-96 96v16l-846 -397v-65zM141 590v41l805 377v-70l-694 -328l694 -336v-69z" />
<glyph unicode="=" horiz-adv-x="1705" d="M233 401h13l96 -96h1227v92l-96 97v12h-1240v-105zM233 725h13l96 -96h1227v92l-96 96v12h-1240v-104zM254 422v63h1198v-63h-1198zM254 745v64h1198v-64h-1198z" />
<glyph unicode="&#x3e;" horiz-adv-x="1089" d="M121 172l10 4l98 -96l834 399v58l-96 96v10l-846 397v-114l18 -11l90 -88l510 -241l-618 -299v-115zM141 205v69l697 336l-697 328v70l805 -377v-41z" />
<glyph unicode="?" horiz-adv-x="948" d="M53 1180l10 -19l15 -6l94 -92l82 -25q49 283 324 283q106 0 186 -35q33 -57 33 -145q0 -104 -97 -176l-96 -72l-102 -78q-111 -123 -111 -340q0 -27 2 -59.5t6 -73.5h13l96 -96h94q-12 76 -12 135q0 170 102 272l199 152q113 80 113 242q0 152 -97 247l-51 52 q-121 178 -369 178q-174 0 -287.5 -88t-146.5 -256zM74 1180q25 119 96 200q111 123 317 123q172 0 281 -90q119 -94 119 -264q0 -147 -107 -229l-198 -152q-109 -104 -109 -285q0 -20 3 -50l7 -71h-65q-6 61 -6 113q0 205 104 326q8 8 197 147q104 76 104 193 q0 297 -342 297q-287 0 -336 -279zM381 96q0 -96 47 -112l86 -86q12 -12 33 -13q59 0 59 111q0 72 -24 96l-2 2v-2l-2 2h2l-82 82q-16 37 -54 37q-63 0 -63 -117zM401 96q0 96 43 97q45 0 45 -97q0 -96 -45 -96q-43 0 -43 96z" />
<glyph unicode="@" horiz-adv-x="2048" d="M106 524q0 -391 297 -620l31 -31q258 -258 711 -258q358 0 663 225l-39 60l-79 80l-21 28q-297 -199 -637 -198q-354 0 -565 174q-4 4 -7 6t-5 4q-121 158 -121 412q0 424 315 677q229 184 559 185q289 0 492 -142q119 -143 119 -348q0 -305 -146 -456l-50 -53l-19 -19 q-41 -39 -80 -57.5t-94 -30.5l131 821l-99 98l2 11l-106 -2l-21 -125l-12 14q-86 121 -262 121h-14q-203 0 -340 -154q-117 -129 -152 -350l-7 -61q-3 -27 -3 -50q0 -109 55 -202q43 -80 113 -125l57 -56q96 -90 225 -90h7q129 0 231 64q10 -12 29 -19l82 -80q25 -25 81 -24 q10 0 22.5 1t27.5 3h6q123 14 198 59l50 37q14 10 34 27l47 37q225 178 226 557q0 260 -183 442l-32 33q-53 76 -148 145q-225 170 -561 170q-508 0 -805 -362q-203 -250 -203 -578zM127 524q0 328 197 566q293 354 790 354q330 0 549 -166q258 -197 258 -502 q0 -369 -219 -545q-45 -39 -131 -100q-113 -63 -246 -63q-90 0 -90 71q0 16 2 21h-2l27 174q-119 -199 -361 -205q-178 -4 -280 166q-53 90 -54 190q0 23 3 50l8 59q35 215 145 338q125 143 326 147q238 6 299 -190l28 180l66 2l-137 -876q2 -10 3 -21.5t5 -26.5 q8 -18 43 -18q10 0 21.5 1t21.5 3q111 20 178 68q16 10 43 38l68 68q152 164 151 471q0 289 -227 459q-201 147 -506 147q-330 0 -567 -188q-322 -258 -322 -688q0 -346 238 -541q221 -178 577 -178q346 0 631 193l23 -35q-289 -215 -644 -215q-381 0 -616 180 q-299 225 -299 612zM635 489q0 -102 41 -180q63 -123 235 -119q193 2 308 177q96 152 96 352q0 139 -66 217q-72 86 -209 84q-180 -2 -292 -156q-94 -131 -111 -323q-2 -14 -2 -29v-23zM752 387q0 57 8 105q27 172 117 282q104 129 266 129h8q59 0 109 -20q35 -74 34 -164 q0 -57 -8 -105q-29 -176 -115 -278q-104 -125 -260 -125h-16q-68 0 -117 22q-26 60 -26 154z" />
<glyph unicode="A" horiz-adv-x="1175" d="M-41 -18h16l95 -97h100l192 500h596l154 -403h10l97 -97h98l-569 1499l-93 93l-6 16h-106zM-8 0l565 1473h78l559 -1473h-68l-190 502h-686l-193 -502h-65zM274 563h637l-315 830zM440 584l222 569l219 -569h-441z" />
<glyph unicode="B" horiz-adv-x="1265" d="M147 -18h13l96 -97h463q289 0 409 74q174 104 175 332q0 178 -101 278l-61 62q-39 51 -72 74q158 102 158 301q0 170 -97 262l-55 53q-68 109 -225 149q-100 23 -279 23h-424v-1511zM168 0v1473h403q274 0 381 -64q158 -92 158 -301q0 -248 -252 -336q328 -63 328 -379 q0 -221 -168 -321q-119 -72 -402 -72h-448zM238 61h364q242 0 332 37q180 74 180 308q0 203 -168 278q-117 55 -342 55h-366v-678zM238 793h342q461 0 460 319q0 186 -149 254q-96 45 -316 45h-337v-618zM354 82v541h353q219 0 337 -54q6 -6 13 -8q37 -66 37 -155 q0 -219 -168 -289q-86 -35 -324 -35h-248zM354 813v481h324q211 0 309 -43q0 -2 2 0v-2q31 -55 31 -137q0 -299 -440 -299h-226z" />
<glyph unicode="C" horiz-adv-x="1394" d="M84 733q0 -334 141 -543q59 -88 131 -135l43 -43q156 -156 420 -155q205 0 355 96q160 100 208 295l-8 16l-90 90l-8 17l-84 45q-84 -367 -485 -367q-176 0 -293 98l-6 13q-115 188 -115 471q0 289 119 475q137 221 407 221q170 0 285 -70q45 -61 74 -145l8 4l98 -98 l90 47q-39 109 -119 188l-10 11l-43 41q-47 59 -90 94q-158 127 -383 127q-332 0 -500 -240q-145 -211 -145 -553zM104 733q0 334 140 539q162 233 485 233q219 0 371 -121q109 -86 153 -210l-63 -33q-100 303 -473 303q-276 0 -420 -227q-121 -193 -121 -484 q0 -293 117 -479q139 -225 414 -225q190 0 317 88q143 96 182 268l60 -31q-49 -188 -203 -288q-145 -92 -346 -93q-319 0 -475 230q-138 198 -138 530z" />
<glyph unicode="D" horiz-adv-x="1411" d="M147 -18h13l96 -97h352q322 0 479 74q334 154 334 674q0 393 -190 575l-47 45q-80 106 -197 166q-145 74 -481 74h-359v-1511zM168 0v1473h338q326 0 473 -72q326 -164 326 -666q0 -514 -326 -663q-156 -72 -473 -72h-338zM238 61h284q297 0 439 74q272 143 272 600 q0 371 -195 547q-92 82 -243 111q-45 8 -113 12t-160 4h-284v-1348zM354 82v1210h271q92 0 159.5 -4t110.5 -12q111 -23 186 -70q131 -170 131 -471q0 -446 -260 -581q-139 -72 -430 -72h-168z" />
<glyph unicode="E" horiz-adv-x="1161" d="M147 -18h13l96 -97h948v95l-96 94v12h-754v532h658v93l-97 96v12h-561v471h830v94l-97 97v12h-940v-1511zM168 0v1473h899v-66h-829v-608h657v-64h-657v-669h849v-66h-919z" />
<glyph unicode="F" horiz-adv-x="1071" d="M147 -18h13l96 -97h98v733h629v93l-96 96v12h-533v471h791v94l-96 97v12h-902v-1511zM168 0v1473h860v-66h-790v-608h628v-64h-628v-735h-70z" />
<glyph unicode="G" horiz-adv-x="1452" d="M86 735q0 -336 156 -549q61 -84 125 -127l43 -43q162 -162 438 -161q152 0 280 55q330 139 330 616v43v25q0 12 -2 22l-96 95v14h-592v-102h12l97 -97h374q-12 -223 -145 -350t-361 -127q-193 0 -321 105q-129 184 -129 479q0 291 127 479q143 215 426 215q180 0 293 -70 q45 -61 73 -147l17 -6l92 -92l20 -8l76 36q-45 143 -125 217l-49 48q-158 221 -500 221q-332 0 -505 -242q-154 -213 -154 -549zM106 735q0 332 150 537q168 233 489 233q201 0 340 -84q158 -92 213 -272l-63 -31q-98 326 -490 326q-285 0 -436 -219q-131 -188 -131 -490 q0 -301 131 -487q152 -219 436 -219q252 0 390 149q139 152 139 402v63h-486v62h551q2 -10 2 -21v-18v-37q0 -471 -321 -606q-123 -51 -275 -52q-322 0 -489 230q-150 200 -150 534z" />
<glyph unicode="H" horiz-adv-x="1404" d="M147 -18h13l96 -97h98v754h795v-657h12l96 -97h97v1499l-97 97v12h-108v-655h-795v546l-96 97v12h-111v-1511zM168 0v1473h70v-656h931v656h68v-1473h-68v756h-931v-756h-70z" />
<glyph unicode="I" horiz-adv-x="423" d="M158 -18h12l96 -97h96v1499l-96 97v12h-108v-1511zM178 0v1473h68v-1473h-68z" />
<glyph unicode="J" horiz-adv-x="968" d="M84 180q39 -111 131 -174l61 -57q102 -96 265 -96q391 0 391 473v1058l-96 97v12h-109v-1044q0 -199 -49 -287q-66 -115 -234 -115q-96 0 -153 39q-2 4 -4 9t-4 14l-90 90q-6 6 -11 22q-8 -8 -10 -8q-27 -15 -88 -33zM111 166q10 2 25 9l38 18q68 -166 270 -166 q180 0 252 127q51 94 52 295v1024h67v-1045q0 -459 -377 -459q-247 0 -327 197z" />
<glyph unicode="K" horiz-adv-x="1191" d="M147 -18h13l96 -97h98v559l244 248l541 -710h8l96 -97h119l-680 893l598 606l-98 99l10 10h-145l-693 -705v596l-96 97v12h-111v-1511zM168 0v1473h70v-830l817 830h88l-582 -590l670 -883h-82l-633 836l-278 -283v-553h-70z" />
<glyph unicode="L" horiz-adv-x="1042" d="M150 -18h12l96 -97h879v95l-97 94v12h-684v1298l-96 97v12h-110v-1511zM170 0v1473h70v-1407h780v-66h-850z" />
<glyph unicode="M" horiz-adv-x="1583" d="M147 -18h13l96 -97h90v1237l422 -790h10l96 -96h58l401 778v-1032h13l96 -97h90v1499l-96 97v12h-129l-486 -975l-444 866l-88 86l-10 23h-132v-1511zM168 0v1473h98l537 -1037l516 1037h96v-1473h-61v1386l-533 -1034h-41l-551 1034v-1386h-61z" />
<glyph unicode="N" horiz-adv-x="1396" d="M147 -18h13l96 -97h96v1260l799 -1163h8l96 -97h91v1499l-97 97v12h-108v-1274l-793 1165l-84 82l-16 27h-101v-1511zM168 0v1473h70l923 -1356v1356h68v-1473h-68l-925 1354v-1354h-68z" />
<glyph unicode="O" horiz-adv-x="1517" d="M86 735q0 -340 158 -553q27 -35 53.5 -61.5t54.5 -48.5l51 -52q168 -166 457 -165q334 0 510 227q158 207 158 551q0 346 -156 551q-23 31 -55 63l-43 43q-174 236 -516 236q-338 0 -512 -236q-160 -209 -160 -555zM106 735q0 334 154 541q172 229 498 229 q330 0 499 -227q154 -203 154 -543q0 -342 -154 -540q-168 -223 -499 -224q-328 0 -500 224q-152 204 -152 540zM178 735q0 -305 133 -493q152 -213 447 -213q297 0 448 213q133 188 133 493t-135 494q-154 215 -446 215q-297 0 -447 -215q-133 -189 -133 -494zM295 633 q0 299 129 483q147 211 436 211q176 0 309 -86l19 -24q131 -174 131 -482q0 -303 -129 -481q-147 -205 -432 -205q-205 0 -338 107q-125 186 -125 477z" />
<glyph unicode="P" horiz-adv-x="1177" d="M147 -18h13l96 -97h98v678h312q160 0 229 15q154 31 238 137t84 266q0 172 -99 270l-57 58q-123 184 -492 184h-422v-1511zM168 0v1473h401q530 0 531 -390q0 -156 -80 -258t-229 -131q-66 -14 -228 -14h-325v-680h-70zM238 741h280q256 0 342 39q168 74 168 310 q0 266 -272 309q-78 12 -236 12h-282v-670zM354 762v532h269q162 0 235 -12q76 -12 115 -37q35 -66 35 -155q0 -223 -156 -291q-84 -37 -334 -37h-164z" />
<glyph unicode="Q" horiz-adv-x="1517" d="M86 735q0 -340 158 -553q27 -35 53.5 -61.5t54.5 -48.5l51 -52q168 -166 457 -165q109 0 207 26q12 -12 47 -37l68 -67q90 -92 346 -107l18 80l-98 98l4 11q-176 14 -256 53q-4 6 -6 18q94 57 160 129q178 209 178 574q0 346 -156 551q-23 31 -55 63l-43 43 q-174 236 -516 236q-338 0 -512 -236q-160 -209 -160 -555zM106 735q0 334 154 541q172 229 498 229q330 0 499 -227q154 -203 154 -543q0 -358 -174 -563q-74 -86 -168 -135q23 -63 53 -96q70 -82 303 -101l-12 -53q-252 16 -336 115q-37 43 -59 110q-119 -41 -260 -41 q-328 0 -500 224q-152 204 -152 540zM178 735q0 -305 133 -493q152 -213 447 -213q131 0 243 47l-30 123q-23 63 -56 102q-74 84 -305 100l4 66q88 -6 187 -35q131 -39 180 -117q29 -45 70 -213q72 41 133 115q156 186 155 518q0 305 -135 494q-154 215 -446 215 q-297 0 -447 -215q-133 -189 -133 -494zM295 633q0 299 129 483q147 211 436 211q176 0 309 -86l19 -24q131 -174 131 -482q0 -332 -150 -506q-23 -25 -55 -53q-4 8 -8 19l-10 26q-6 10 -13.5 18.5t-15.5 16.5l-66 63v5q-2 0 -2 2q-59 86 -192 127q-43 14 -96.5 22 t-116.5 12l-4 -106h6q2 -2 6 -2l96 -94q156 -12 232 -45q6 -10 18.5 -48t28.5 -104q-104 -39 -219 -39q-205 0 -338 107q-125 186 -125 477z" />
<glyph unicode="R" horiz-adv-x="1273" d="M147 -18h13l96 -97h98v695h430q109 0 193 -25q14 -35 24 -80q2 -16 3.5 -52t1.5 -93v-348h12l96 -97h109l-4 486q-12 127 -82 196l-68 68q209 98 209 350q0 190 -98 287l-60 57q-96 164 -463 164h-510v-1511zM168 0v1473h489q244 0 357 -70q147 -90 147 -316 q0 -281 -266 -362q186 -37 207 -254v-49q0 -47 2 -141l2 -281h-80v330q0 61 -1 98t-3 49q-23 137 -117 182q-72 37 -223 37h-444v-696h-70zM238 758h454q399 0 400 323q0 272 -248 318q-29 4 -75 7t-112 3h-419v-651zM354 778v514h406q57 0 103 -3t81 -7q16 -4 38 -11 l50 -18q39 -70 39 -172q0 -303 -379 -303h-338z" />
<glyph unicode="S" horiz-adv-x="1173" d="M72 469q14 -303 198 -424l56 -53l2 -2q63 0 184 -68q119 -68 184 -67q221 0 355 106q150 113 149 328q0 147 -96 243l-49 50q-41 68 -117 112q-78 51 -328 121h-6q8 -6 4 -6q-2 0 -18 4l2 6q-8 2 -8 6h-6q-166 43 -244 86q-23 45 -23 107q0 154 105 237q94 76 254 76 q129 0 225 -53q59 -90 61 -225h13l96 -97h94q-10 211 -121 324l-61 61q-133 184 -406 185q-188 0 -313 -94v2q-150 -113 -149 -314q0 -178 139 -282l61 -60q2 -4 17 -14q74 -68 327 -137q4 0 6 -2h3q37 -10 73.5 -22.5t75.5 -22.5q98 -33 141 -58q41 -66 41 -149 q0 -156 -125 -244q-115 -80 -272 -80q-152 0 -254 76q-55 94 -66 235l-96 95v14h-108zM92 449h68q12 -197 125.5 -308.5t310.5 -111.5q170 0 287 86q131 94 131 258q0 168 -137 256q-35 23 -109 50.5t-186 55.5q-2 2 -27 8q-254 72 -322 134q-104 94 -104 243q0 188 131 289 q121 96 311 96q104 0 188.5 -29.5t146 -85t96 -135t40.5 -182.5h-65q-4 176 -119 279q-113 96 -291 96q-164 0 -264 -80q-109 -90 -108 -248q0 -115 90 -198q59 -53 290 -119q4 -2 11.5 -3t17.5 -5q260 -78 324 -119q156 -100 155 -285q0 -205 -145 -319 q-131 -100 -344 -101q-111 0 -200 33t-153.5 95.5t-103.5 150.5t-45 199zM600 815h2h-2z" />
<glyph unicode="T" horiz-adv-x="1042" d="M12 1389h13l96 -97h350v-1310h12l97 -97h98v1407h459v92l-97 97v12h-1028v-104zM33 1409v64h987v-64h-459v-1409h-69v1409h-459z" />
<glyph unicode="U" horiz-adv-x="1374" d="M137 514q0 -264 144 -414q33 -35 61 -55l49 -45q152 -145 400 -145q262 0 403 146t141 411v972l-96 97v12h-109v-946q0 -238 -102 -363q-115 -135 -340 -135q-172 0 -276 74q-70 119 -70 321v940l-96 97v12h-109v-979zM158 514v959h67v-926q0 -518 463 -518t463 518v926 h68v-959q0 -258 -137.5 -400.5t-393.5 -142.5t-393 142.5t-137 400.5z" />
<glyph unicode="V" horiz-adv-x="1075" d="M-31 1493l520 -1511h11l96 -97h86l522 1499l-98 99l4 10h-115l-428 -1241l-389 1132l-94 93l-4 16h-111zM-2 1473h68l473 -1373l471 1373h71l-512 -1473h-65z" />
<glyph unicode="W" horiz-adv-x="1687" d="M-8 1493l401 -1511h10l97 -97h92l317 891l285 -794h10l96 -97h93l399 1499l-98 97l4 12h-113l-321 -1208l-275 749l-92 92l-6 17h-94l-310 -842l-286 1083l-95 95l-4 14h-110zM16 1473h70l360 -1350l365 999h66l366 -999l359 1350h69l-393 -1473h-70l-364 1026 l-365 -1026h-69z" />
<glyph unicode="X" horiz-adv-x="1085" d="M-35 -18h19l94 -97h110l433 650l374 -553h9l96 -97h112l-510 768l482 731l-99 97l9 12h-127l-412 -625l-340 516l-78 78l-20 31h-129l487 -739zM2 0l500 754l-477 719h79l439 -662l436 662h76l-471 -717l499 -756h-77l-467 694l-461 -694h-76z" />
<glyph unicode="Y" horiz-adv-x="1085" d="M-35 1493l522 -854v-657h13l96 -97h96v654l518 845l-98 97l8 12h-129l-432 -707l-369 598l-81 82l-17 27h-127zM2 1473h78l465 -752l459 752h77l-506 -826v-647h-67v651z" />
<glyph unicode="Z" horiz-adv-x="1083" d="M0 -18h10l96 -97h1074v90l-97 95v12h-784l856 1212v90l-96 97v12h-981v-104h12l96 -97h672l-858 -1216v-94zM18 0v68l947 1341h-867v64h940v-70l-946 -1342h971v-61h-1045z" />
<glyph unicode="[" horiz-adv-x="618" d="M215 -438h12l97 -97h374v91l-96 96v12h-178v1626h274v92l-96 97v12h-387v-1929zM236 -418v1888h346v-63h-275v-1763h275v-62h-346z" />
<glyph unicode="\" horiz-adv-x="598" d="M-100 1532l643 -1720h10l96 -97h103l-641 1708l-93 93l-6 16h-112zM-72 1511h72l629 -1679h-72z" />
<glyph unicode="]" horiz-adv-x="618" d="M25 -336v-102h12l96 -97h375v1917l-96 97v12h-387v-105h12l96 -96h166v-1626h-274zM45 -356h274v1763h-274v63h346v-1888h-346v62z" />
<glyph unicode="^" horiz-adv-x="1110" d="M172 934h18l97 -96h143l203 344l147 -248h11l96 -96h143l-315 530l-84 82l-15 27h-120zM211 954l297 502h96l297 -502h-108l-238 402l-236 -402h-108z" />
<glyph unicode="_" horiz-adv-x="1024" d="M-18 -397v-103h12l94 -96h1053v90l-97 96v13h-1062zM0 -418h1024v-61h-1024v61z" />
<glyph unicode="`" horiz-adv-x="1024" d="M270 1544l236 -368h10l96 -97h144l-228 357l-79 80l-19 28h-160zM309 1524h109l209 -328h-109z" />
<glyph unicode="a" horiz-adv-x="1171" d="M74 528q0 -246 114 -403q41 -55 93 -90l53 -51q125 -125 332 -125q195 0 309 104l78 -78h92v1090l-96 96v12h-105v-163l-18 18q-123 168 -363 168q-246 0 -375 -174q-114 -158 -114 -404zM94 528q0 244 111 392q123 166 358 165q297 0 402 -266v244h63v-1063h-63v229 q-100 -254 -402 -254q-233 0 -358 162q-111 143 -111 391zM160 528q0 -215 92 -346q106 -154 311 -153q205 0 309 153q92 131 93 346q0 213 -93 346q-104 154 -309 154q-203 0 -309 -154q-94 -133 -94 -346zM276 426q0 203 91 336q100 150 299 149q111 0 186 -45l4 -4 q88 -127 88 -334t-86 -331q-102 -147 -295 -148q-129 0 -213 60q-74 122 -74 317z" />
<glyph unicode="b" horiz-adv-x="1171" d="M121 -18h12l96 -97h95v158q6 -6 12 -10l57 -53q127 -121 318 -121q244 0 370 166q113 150 113 401q0 291 -158 448l-47 48q-2 2 -3 4t-3 4q-127 176 -375 176q-170 0 -284 -90v366l-97 97v12h-106v-1509zM141 0v1470h66v-649q111 264 401 264q231 0 359 -165 q111 -152 110 -392q0 -244 -110 -391q-123 -162 -359 -162q-279 0 -401 250v-225h-66zM207 528q0 -215 92 -346q104 -154 309 -153q203 0 312 153q92 131 92 346q0 213 -92 346q-109 154 -312 154q-205 0 -309 -154q-92 -133 -92 -346zM324 426q0 209 88 336 q100 150 299 149q106 0 190 -47v-2h2q88 -127 88 -334t-86 -331q-102 -147 -297 -148q-125 0 -211 62q-73 125 -73 315z" />
<glyph unicode="c" horiz-adv-x="1062" d="M70 528q0 -244 112 -399q41 -59 99 -100l53 -49q127 -121 319 -121q184 0 297 100q84 72 121 191l-6 16l-92 92l-6 16l-82 48q-31 -121 -115 -197q-88 -76 -213 -76t-211 62q-74 125 -74 315q0 209 88 336q100 150 299 149q98 0 168 -39q6 -10 16.5 -31.5t24.5 -56.5l9 4 l98 -96l82 53q-33 88 -90 142l-60 57q-113 162 -350 162q-244 0 -373 -176q-114 -158 -114 -402zM90 528q0 238 111 390q123 168 356 167q289 0 379 -231l-55 -37q-35 100 -124 155.5t-200 55.5q-205 0 -309 -154q-92 -133 -92 -346q0 -215 92 -346q104 -154 309 -153 q129 0 220 68.5t122 191.5l55 -33q-86 -281 -403 -281q-233 0 -352 166q-109 149 -109 387z" />
<glyph unicode="d" horiz-adv-x="1171" d="M74 528q0 -248 114 -403q41 -55 93 -90l53 -51q125 -125 332 -125q190 0 305 106l82 -80h92v1497l-96 97v12h-105v-565l-18 18q-125 162 -363 162q-246 0 -375 -176q-114 -158 -114 -402zM94 528q0 240 111 392q125 166 358 165q303 0 402 -256v641h63v-1470h-63v236 q-104 -260 -402 -261q-236 0 -358 162q-111 147 -111 391zM160 528q0 -215 92 -346q106 -154 311 -153q205 0 309 153q92 131 93 346q0 213 -93 346q-104 154 -309 154q-203 0 -309 -154q-94 -133 -94 -346zM276 426q0 203 91 336q100 150 299 149q111 0 186 -45l4 -4 q88 -127 88 -334t-86 -331q-102 -147 -295 -148q-129 0 -213 60q-74 122 -74 317z" />
<glyph unicode="e" horiz-adv-x="1071" d="M68 528q0 -238 108 -399q23 -33 49.5 -59.5t57.5 -46.5l49 -48q117 -117 309 -116q166 0 283 92v2q92 72 139 192l-98 97q2 2 2 4t2 4l-92 49q-96 -250 -338 -250q-109 0 -189 55q-78 127 -78 302v2h830v53q0 238 -109 377l-37 43l-55 53q-2 4 -3 5t-3 5 q-119 162 -356 162q-236 0 -361 -178q-110 -154 -110 -400zM88 528q0 233 105 385q119 172 346 172q223 0 340 -153q106 -137 106 -369v-39h-829v-16q0 -197 92 -328q104 -152 291 -151q258 0 350 241l53 -28q-49 -129 -155.5 -198t-247.5 -69q-229 0 -349 168 q-102 145 -102 385zM158 584h757q0 186 -88 307q-98 137 -276 137q-186 0 -289 -133q-92 -116 -104 -311zM291 604q31 109 86 180h-2q102 127 278 127q90 0 162 -41q72 -104 80 -266h-604z" />
<glyph unicode="f" horiz-adv-x="432" d="M78 -18h12l96 -97h93v1002h208v88l-96 96v12h-112v29q0 109 16 145q29 53 115 54h192v84l-96 96v12l-209 -2q-137 -2 -186 -86v2q-33 -57 -33 -205v-1230zM98 0v1212q0 139 31 193q39 72 168 76l188 2v-56h-178q-100 0 -127 -61q-18 -41 -18 -152v-151h209v-59h-209 v-1004h-64z" />
<glyph unicode="g" horiz-adv-x="1171" d="M74 528q0 -340 207 -499l55 -52q127 -121 326 -120q162 0 270 77q-10 -70 -33 -112q-92 -168 -348 -168q-129 0 -215 49q-8 16 -13.5 41t-7.5 57l-96 97v12h-102q2 -193 133 -279q2 0 6 -4l57 -57q111 -111 324 -111q305 0 438 191q70 100 70 307v1018l-96 96v12h-105 v-163l-12 12q-125 174 -369 174q-246 0 -375 -174q-114 -158 -114 -404zM94 528q0 244 111 392q123 166 358 165q141 0 248 -65.5t154 -194.5v238h63v-1006q0 -199 -67 -297q-127 -184 -426 -184q-166 0 -273 72q-123 84 -125 241h62q18 -256 352 -256q266 0 367 181 q47 84 47 305v108q-111 -254 -406 -254q-236 0 -356 164q-109 149 -109 391zM160 528q0 -215 92 -346q106 -154 311 -153q205 0 309 153q92 131 93 346q0 213 -93 346q-104 154 -309 154q-203 0 -309 -154q-94 -133 -94 -346zM276 426q0 203 91 336q100 150 299 149 q111 0 186 -45l4 -4q88 -127 88 -334t-86 -331q-102 -147 -295 -148q-129 0 -213 60q-74 122 -74 317z" />
<glyph unicode="h" d="M121 -18h12l96 -97h95v582q0 59 3 105t7 77q43 260 336 260q66 0 137 -24q37 -74 37 -201v-702h12l96 -97h95v717q0 203 -99 301l-4 2l2 -2l-59 60q-92 143 -322 143q-143 0 -241 -62v338l-97 97v12h-106v-1509zM141 0v1470h66v-581q100 197 358 196q365 0 365 -380v-705 h-66v684q0 170 -61 250q-72 92 -236 92q-305 0 -350 -272q-4 -29 -7 -75t-3 -110v-569h-66z" />
<glyph unicode="i" horiz-adv-x="358" d="M115 1393q0 -102 45 -117l88 -86q12 -12 33 -12q59 0 59 112q0 74 -25 99l-84 84q-16 37 -53 36q-63 1 -63 -116zM127 -18h12l97 -97h92v1090l-97 96v12h-104v-1101zM135 1393q0 96 43 96q45 0 45 -96q0 -98 -45 -99q-43 1 -43 99zM147 0v1063h64v-1063h-64z" />
<glyph unicode="j" horiz-adv-x="358" d="M-121 -338v-102h12l97 -97h137q133 0 176 78q29 53 29 195v1239l-97 96v12h-104v-1222q0 -123 -12 -150q-23 -49 -109 -49h-129zM-100 -358h108q98 0 127 61q14 31 15 158v1202h63v-1225q0 -143 -27 -188q-39 -70 -163 -70h-123v62zM111 1393q0 -102 45 -117l88 -86 q12 -12 32 -12q59 0 60 112q0 74 -25 99l-84 84q-16 37 -53 36q-63 1 -63 -116zM131 1393q0 96 43 96q45 0 45 -96q0 -98 -45 -99q-43 1 -43 99z" />
<glyph unicode="k" horiz-adv-x="937" d="M121 -18h12l96 -97h95v385l217 211l336 -499h8l96 -97h109l-457 686l403 404l-98 98l10 10h-137l-487 -483v782l-97 97v12h-106v-1509zM141 0v1470h66v-1013l612 606h80l-387 -387l449 -676h-74l-420 631l-260 -252v-379h-66z" />
<glyph unicode="l" horiz-adv-x="358" d="M127 -18h12l97 -97h92v1497l-97 97v12h-104v-1509zM147 0v1470h64v-1470h-64z" />
<glyph unicode="m" horiz-adv-x="1673" d="M121 -18h12l96 -97h95v586q0 59 3 103t7 77q43 258 303 258q70 0 117 -20q0 -4 4 -8q29 -70 28 -242v-657h13l96 -97h92v586q0 207 57 307q74 131 256 131q70 0 117 -20q0 -4 4 -8q29 -70 29 -242v-657h12l97 -97h94v717q0 213 -99 309l-63 62q-86 133 -291 133 q-213 0 -332 -172l-47 49q-92 123 -282 123q-158 0 -258 -88l-54 53v12h-106v-1101zM141 0v1063h66v-174q104 197 332 196q258 0 315 -217q111 217 346 217q336 0 336 -380v-705h-66v639q0 176 -30 250q-57 137 -242 137q-190 0 -268 -139q-59 -109 -60 -314v-573h-63v639 q0 176 -31 250q-57 137 -241 137q-272 0 -318 -270q-4 -33 -7 -78t-3 -105v-573h-66z" />
<glyph unicode="n" d="M121 -18h12l96 -97h95v582q0 59 3 105t7 77q43 260 336 260q66 0 137 -24q37 -74 37 -201v-702h12l96 -97h95v717q0 205 -99 301l-61 60q-92 143 -322 143q-174 0 -282 -90l-56 55v12h-106v-1101zM141 0v1063h66v-174q100 197 358 196q365 0 365 -380v-705h-66v684 q0 170 -61 250q-72 92 -236 92q-305 0 -350 -272q-4 -29 -7 -75t-3 -110v-569h-66z" />
<glyph unicode="o" horiz-adv-x="1116" d="M70 528q0 -246 114 -403q41 -55 92 -90l54 -51q125 -125 329 -125q244 0 371 166q113 150 113 401q0 291 -158 448l-47 48q-2 2 -3 4t-3 4q-127 176 -375 176q-244 0 -373 -176q-114 -158 -114 -402zM90 528q0 238 111 390q123 168 356 167q231 0 358 -165 q111 -152 111 -392q0 -248 -111 -391q-125 -162 -358 -162q-236 0 -358 164q-109 145 -109 389zM156 528q0 -215 92 -346q104 -154 309 -153q203 0 311 153q92 131 93 346q0 213 -93 346q-109 154 -311 154q-205 0 -309 -154q-92 -133 -92 -346zM272 426q0 209 88 336 q100 150 299 149q106 0 191 -47v-2h2q88 -127 88 -334t-86 -331q-102 -147 -297 -148q-125 0 -211 62q-74 125 -74 315z" />
<glyph unicode="p" horiz-adv-x="1171" d="M121 -438h12l96 -97h95v570q4 -4 6 -4l59 -58q115 -115 322 -114q244 0 370 166q113 150 113 401q0 295 -156 451l-55 55q-125 174 -375 174q-188 0 -309 -109l-72 74v12h-106v-1521zM141 -418v1481h66v-244q104 266 401 266q236 0 359 -165q111 -147 110 -392 q0 -248 -110 -391q-125 -162 -359 -162q-301 0 -401 254v-647h-66zM207 528q0 -215 92 -346q104 -154 309 -153q203 0 312 153q92 131 92 346q0 213 -92 346q-109 154 -312 154q-205 0 -309 -154q-92 -133 -92 -346zM324 426q0 209 88 336q100 150 299 149q106 0 190 -47v-2 h2q88 -127 88 -334t-86 -331q-102 -147 -297 -148q-125 0 -211 62q-73 125 -73 315z" />
<glyph unicode="q" horiz-adv-x="1171" d="M74 528q0 -246 114 -403q41 -55 93 -90l53 -51q125 -125 332 -125q168 0 278 80v-377h12l97 -97h92v1510l-96 96v12h-105v-163l-18 18q-123 168 -363 168q-246 0 -375 -174q-114 -158 -114 -404zM94 528q0 244 111 392q123 166 358 165q297 0 402 -266v244h63v-1481h-63 v647q-100 -254 -402 -254q-233 0 -358 162q-111 143 -111 391zM160 528q0 -215 92 -346q106 -154 311 -153q205 0 309 153q92 131 93 346q0 213 -93 346q-104 154 -309 154q-203 0 -309 -154q-94 -133 -94 -346zM276 426q0 203 91 336q100 150 299 149q111 0 186 -45l4 -4 q88 -127 88 -334t-86 -331q-102 -147 -295 -148q-129 0 -213 60q-74 122 -74 317z" />
<glyph unicode="r" horiz-adv-x="538" d="M121 -18h12l96 -97h95v719q0 102 55 168q74 80 137 100q37 12 113 13l61 86l-98 98l8 10h-51q-164 0 -262 -67l-60 59v12h-106v-1101zM141 0v1063h66v-176q81 172 346 172h6l-41 -58q-70 0 -108 -12q-92 -29 -147.5 -108.5t-55.5 -173.5v-707h-66z" />
<glyph unicode="s" horiz-adv-x="985" d="M80 336q14 -199 137 -295q4 -4 9 -8l14 -10l59 -56q20 -20 25 -22q111 -86 286 -86q162 0 269 75q125 82 125 236q0 115 -68 180l-68 66q-35 51 -77 80v-2q-43 29 -119 55l-62 20l-61 21h-12q-139 33 -215 80q-6 18 -7 41q0 100 93 155q76 45 182 45q88 0 143 -26 q27 -47 39 -125h12l97 -96h92q-16 147 -101 231l-59 59q-12 18 -29 35l-32 33q-109 84 -256 84q-160 0 -263 -70q-123 -84 -122 -231q0 -129 104 -209v2l6 -6l66 -64q20 -20 24 -22v2q78 -63 340 -131l7 -1q7 -1 22 -5l20 -6q2 -2 7 -3l79 -30q12 -29 13 -58 q0 -113 -94 -170q-82 -51 -199 -51q-119 0 -189 45q-14 29 -22 57.5t-12 59.5l-95 94q-2 2 -2 10l-18 17h-88zM102 315h64q51 -283 340 -282q129 0 213 55q100 63 100 186q0 147 -211 205q-195 53 -205 58q-129 39 -186 84q-86 68 -86 184q0 139 119 215q102 66 246 65 q150 0 246 -78.5t112 -226.5h-63q-33 248 -304 248q-113 0 -194 -49q-94 -57 -94 -166q0 -160 325 -242q2 -2 21 -6q168 -43 233 -88q109 -74 109 -205q0 -143 -121 -227q-106 -70 -258 -70q-176 0 -279 82q-111 88 -127 258z" />
<glyph unicode="t" horiz-adv-x="382" d="M76 -18h12l96 -97h95v1004h213v86l-97 96v12h-116v183l-97 96v12h-106v-1392zM96 0v1354h66v-291h213v-57h-213v-1006h-66z" />
<glyph unicode="u" d="M117 352q0 -246 145 -342l62 -57q96 -94 280 -94q176 0 283 88l61 -62h92v1090l-96 96v12h-104v-596q0 -53 -3 -99t-8 -85v2q-45 -254 -329 -254q-86 0 -154 29q-29 74 -29 190v705l-96 96v12h-104v-731zM137 352v711h64v-690q0 -168 63 -250q70 -92 236 -92 q303 0 350 270q4 29 7 75t3 111v576h64v-1063h-64v166q-102 -190 -358 -191q-365 0 -365 377z" />
<glyph unicode="v" horiz-adv-x="909" d="M-10 1083l407 -1101h11l96 -97h94l422 1090l-96 96l4 12h-115l-336 -870l-280 762l-93 92l-6 16h-108zM16 1063h68l365 -987l378 987h68l-410 -1063h-73z" />
<glyph unicode="w" horiz-adv-x="1370" d="M0 1083l350 -1101h10l97 -97h86l202 590l179 -493h10l96 -97h86l350 1090l-98 96l4 12h-108l-267 -827l-174 500l-94 92l-4 16h-88l-207 -600l-223 711l-94 92l-4 16h-109zM27 1063h67l303 -963l254 744h60l260 -744l307 963h65l-339 -1063h-66l-258 727l-250 -727h-65z " />
<glyph unicode="x" horiz-adv-x="839" d="M-47 -18h18l95 -97h110l326 457l262 -360h8l96 -97h113l-403 561l376 529l-98 98l8 10h-127l-307 -434l-235 326l-78 78l-23 30h-127l385 -534zM-6 0l385 549l-373 514h78l336 -461l328 461h75l-366 -514l393 -549h-76l-356 498l-352 -498h-72z" />
<glyph unicode="y" d="M106 -84q2 -102 31 -160q20 -41 103 -121l59 -59q104 -104 287 -104q367 0 440 303q20 80 21 147v1075l-97 97v12h-106v-590q0 -55 -3 -101t-7 -81v2q-47 -256 -330 -256q-84 0 -152 29q-29 74 -28 190v698l-97 97v12h-106v-725q0 -246 145 -342l62 -59q94 -94 280 -95 q133 0 230 56v-15q-8 -49 -31 -96q-86 -166 -309 -166q-100 0 -179 41q-8 20 -13 46t-7 56l-96 97v12h-97zM127 -104h55q6 -129 101 -193q84 -59 215 -59q143 0 237 69q102 74 123 211q6 39 6 109v164q-102 -197 -358 -197q-365 0 -365 381v704h66v-684q0 -170 61 -249 q70 -92 236 -93q301 0 350 273q4 29 7 75t3 109v569h66v-1062q0 -57 -21 -142q-68 -293 -426 -293q-156 0 -250 76q-104 82 -106 232z" />
<glyph unicode="z" horiz-adv-x="894" d="M14 -18h13l96 -97h854v92l-96 95v12h-562l635 799v92l-96 96v12h-803v-104h13l96 -96h485l-635 -803v-98zM35 0v76l733 923h-692v64h762v-76l-734 -924h756v-63h-825z" />
<glyph unicode="{" horiz-adv-x="1024" d="M254 473h12l96 -96l60 2h22q35 0 66 -6q2 -10 3 -18.5t1 -16.5q0 -82 -53 -260t-53 -262q0 -139 102 -199l65 -66q78 -78 261 -77h30v98l-96 96v13h-29q-61 0 -114 16q-2 6 -2 20v21q0 76 53 252q53 172 53 260t-51 139l-8 6q0 2 -2 2l-33 35q96 47 96 178q0 90 -49 262 q-49 174 -49 265q0 156 176 155h20q6 0 15.5 -1t19.5 -3v101l-96 96v12h-53q-305 0 -305 -235q0 -100 49 -267q51 -168 51 -252q0 -158 -201 -157h-26q-10 0 -17 2h-14v-115zM274 494v73q258 -16 258 176q0 90 -51 258q-49 166 -49 261q0 215 285 215h33v-70q-6 2 -21 2h-20 q-190 0 -191 -170q0 -90 49 -264q49 -172 49 -262q0 -158 -145 -183q143 -33 143 -178q0 -84 -53 -256t-53 -256q0 -182 242 -180v-70q-322 -6 -322 226q0 88 53 260q53 176 54 262q0 166 -216 158z" />
<glyph unicode="|" horiz-adv-x="1024" d="M455 -500h12l96 -96h103v2073l-97 96v12h-114v-2085zM475 -479v2044h74v-2044h-74z" />
<glyph unicode="}" horiz-adv-x="1024" d="M162 -319v-111h12l96 -96h31q317 0 317 239q0 86 -53 262q-51 166 -51 261q0 143 176 143h23l59 -2v102l-96 96v13h-17q-6 -2 -16 -2h-25q-66 0 -100 14q-2 6 -2 18v23q0 88 49 258q49 172 49 260q0 102 -55 158l-8 6l-64 66q-68 109 -272 108h-53v-113h4q2 2 6 2l98 -98 q10 2 19.5 3t13.5 1h23q14 0 61 -6q6 -23 6 -47q0 -90 -49 -264q-49 -172 -49 -262q0 -129 86 -178l8 -9q-94 -51 -94 -174q0 -86 53 -262q55 -172 55 -250q0 -160 -213 -159h-28zM182 -340q242 -2 242 180q0 84 -55 254q-53 172 -54 258q0 145 144 178q-143 25 -144 183 q0 90 50 262q49 174 49 264q0 170 -191 170h-20q-14 0 -21 -2v70h33q283 0 283 -215q0 -88 -49 -261q-49 -170 -50 -258q0 -193 256 -176v-73l-45 2q-213 10 -213 -158q0 -94 52 -262q53 -172 53 -260q0 -231 -320 -226v70zM551 1321h2l-2 2v-2z" />
<glyph unicode="~" horiz-adv-x="1232" d="M115 438l10 11l98 -99q180 186 291 187q53 0 200.5 -72t209.5 -72q133 0 290 158v113l-96 96v20q-190 -190 -297 -190q-66 0 -196 69q-143 76 -213 76q-139 0 -297 -164v-133zM135 487v76q145 152 277 152q61 0 202 -74q147 -72 207 -72q115 0 277 162v-72 q-150 -150 -277 -149q-59 0 -206.5 71.5t-202.5 71.5q-115 0 -277 -166z" />
<glyph unicode="&#x85;" horiz-adv-x="2048" d="M287 84q0 -96 47 -113l86 -86q12 -12 35 -12q59 0 59 111q0 70 -25 94l-81 82q-14 39 -56 39q-65 0 -65 -115zM307 84q0 94 45 94t45 -94t-45 -94t-45 94zM969 84q0 -96 47 -113l86 -86q12 -12 35 -12q59 0 59 111q0 70 -25 94l-81 82q-14 39 -56 39q-65 0 -65 -115z M989 84q0 94 45 94t45 -94t-45 -94t-45 94zM1653 84q0 -96 47 -113l86 -86q12 -12 35 -12q59 0 59 111q0 70 -25 94l-81 82q-14 39 -56 39q-65 0 -65 -115zM1673 84q0 94 45 94t45 -94t-45 -94t-45 94z" />
<glyph unicode="&#x2026;" horiz-adv-x="2048" d="M287 84q0 -96 47 -113l86 -86q12 -12 35 -12q59 0 59 111q0 70 -25 94l-81 82q-14 39 -56 39q-65 0 -65 -115zM307 84q0 94 45 94t45 -94t-45 -94t-45 94zM969 84q0 -96 47 -113l86 -86q12 -12 35 -12q59 0 59 111q0 70 -25 94l-81 82q-14 39 -56 39q-65 0 -65 -115z M989 84q0 94 45 94t45 -94t-45 -94t-45 94zM1653 84q0 -96 47 -113l86 -86q12 -12 35 -12q59 0 59 111q0 70 -25 94l-81 82q-14 39 -56 39q-65 0 -65 -115zM1673 84q0 94 45 94t45 -94t-45 -94t-45 94z" />
<glyph horiz-adv-x="485" d="M143 1016h15l96 -96h98l2 4q25 2 46.5 14t39 31.5t27.5 43t10 48.5q0 47 -20 67l-39 39l57 234l-98 96l4 12l-113 2zM170 1036l115 455l69 -2l-61 -252q68 0 67 -74q0 -45 -35.5 -84t-80.5 -39l-2 -4h-72z" />
<glyph unicode="&#x2018;" horiz-adv-x="485" d="M143 1016h15l96 -96h98l2 4q25 2 46.5 14t39 31.5t27.5 43t10 48.5q0 47 -20 67l-39 39l57 234l-98 96l4 12l-113 2zM170 1036l115 455l69 -2l-61 -252q68 0 67 -74q0 -45 -35.5 -84t-80.5 -39l-2 -4h-72z" />
<glyph horiz-adv-x="485" d="M150 1016h14l96 -96h102l119 481l-98 96l4 12l-111 2l-4 -10q-47 -16 -84 -49q-39 -39 -38 -88q0 -66 43 -86l16 -18zM170 1364q0 45 37 83t82 38l2 6l69 -2l-112 -453h-72l64 252q-70 0 -70 76z" />
<glyph unicode="&#x2019;" horiz-adv-x="485" d="M150 1016h14l96 -96h102l119 481l-98 96l4 12l-111 2l-4 -10q-47 -16 -84 -49q-39 -39 -38 -88q0 -66 43 -86l16 -18zM170 1364q0 45 37 83t82 38l2 6l69 -2l-112 -453h-72l64 252q-70 0 -70 76z" />
<glyph horiz-adv-x="724" d="M143 1016h15l96 -96h98l2 4q74 8 111 86l90 -90h96l2 4q49 4 86 46t37 91q0 45 -22 67l-37 37l59 236l-98 96l4 12l-113 2l-102 -401l-4 8q-2 4 -6 10l-39 39l57 234l-98 96l4 12l-113 2zM170 1036l115 455l69 -2l-61 -252q68 0 67 -74q0 -45 -35.5 -84t-80.5 -39l-2 -4 h-72zM471 1036l115 455l69 -2l-63 -252h2q66 0 65 -74q0 -45 -34.5 -84t-79.5 -39h-2l-2 -4h-70z" />
<glyph unicode="&#x201c;" horiz-adv-x="724" d="M143 1016h15l96 -96h98l2 4q74 8 111 86l90 -90h96l2 4q49 4 86 46t37 91q0 45 -22 67l-37 37l59 236l-98 96l4 12l-113 2l-102 -401l-4 8q-2 4 -6 10l-39 39l57 234l-98 96l4 12l-113 2zM170 1036l115 455l69 -2l-61 -252q68 0 67 -74q0 -45 -35.5 -84t-80.5 -39l-2 -4 h-72zM471 1036l115 455l69 -2l-63 -252h2q66 0 65 -74q0 -45 -34.5 -84t-79.5 -39h-2l-2 -4h-70z" />
<glyph horiz-adv-x="724" d="M150 1016h14l96 -96h102l97 391q12 -27 39 -39l12 -10l-59 -246h14l96 -96h101l118 481l-98 96l4 12l-117 2v-8q-72 -12 -106 -86l-80 80l4 12l-111 2l-4 -10q-47 -16 -84 -49q-39 -39 -38 -88q0 -66 43 -86l16 -18zM170 1364q0 45 37 83t82 38l2 6l69 -2l-112 -453h-72 l64 252q-70 0 -70 76zM471 1364q0 45 36 83t81 38h2v6l69 -2l-112 -453h-70l64 252h-2q-68 0 -68 76z" />
<glyph unicode="&#x201d;" horiz-adv-x="724" d="M150 1016h14l96 -96h102l97 391q12 -27 39 -39l12 -10l-59 -246h14l96 -96h101l118 481l-98 96l4 12l-117 2v-8q-72 -12 -106 -86l-80 80l4 12l-111 2l-4 -10q-47 -16 -84 -49q-39 -39 -38 -88q0 -66 43 -86l16 -18zM170 1364q0 45 37 83t82 38l2 6l69 -2l-112 -453h-72 l64 252q-70 0 -70 76zM471 1364q0 45 36 83t81 38h2v6l69 -2l-112 -453h-70l64 252h-2q-68 0 -68 76z" />
<glyph horiz-adv-x="1208" d="M287 762q0 -164 133 -266l61 -60q88 -88 224 -88q133 0 221 88q90 90 90 223t-88 222l-60 59l-39 47q-90 90 -225 90q-139 0 -229 -90q-88 -88 -88 -225zM307 762q0 66 22.5 120t61.5 93t93.5 60.5t119.5 21.5q127 0 211 -84t84 -211t-86 -213q-84 -84 -211 -84 q-66 0 -120 21.5t-93 61.5t-60.5 94t-21.5 120zM535 762q0 -66 67 -66q68 0 68 66q0 68 -68 67q-67 1 -67 -67z" />
<glyph unicode="&#x2022;" horiz-adv-x="1208" d="M287 762q0 -164 133 -266l61 -60q88 -88 224 -88q133 0 221 88q90 90 90 223t-88 222l-60 59l-39 47q-90 90 -225 90q-139 0 -229 -90q-88 -88 -88 -225zM307 762q0 66 22.5 120t61.5 93t93.5 60.5t119.5 21.5q127 0 211 -84t84 -211t-86 -213q-84 -84 -211 -84 q-66 0 -120 21.5t-93 61.5t-60.5 94t-21.5 120zM535 762q0 -66 67 -66q68 0 68 66q0 68 -68 67q-67 1 -67 -67z" />
<glyph horiz-adv-x="1024" d="M-18 487h12l94 -96h1053v72l-97 96v12h-1062v-84zM0 508v43h1024v-43h-1024z" />
<glyph unicode="&#x2013;" horiz-adv-x="1024" d="M-18 487h12l94 -96h1053v72l-97 96v12h-1062v-84zM0 508v43h1024v-43h-1024z" />
<glyph horiz-adv-x="2048" d="M-18 487h12l94 -96h2077v72l-97 96v12h-2086v-84zM0 508v43h2048v-43h-2048z" />
<glyph unicode="&#x2014;" horiz-adv-x="2048" d="M-18 487h12l94 -96h2077v72l-97 96v12h-2086v-84zM0 508v43h2048v-43h-2048z" />
<glyph horiz-adv-x="1705" d="M264 1391h12l97 -97h69v-389h13l96 -96h86v485h170v-389h12l96 -96h78v410l88 -121l9 2l96 -96l28 8l68 96v-203h12l97 -96h75v555l-96 96v13h-119l-147 -224l-78 115l-82 80l-18 29h-119v-105l-92 92v13h-451v-82zM285 1411v41h409v-41h-174v-485h-57v485h-178zM827 926 v526h88l181 -256l168 256h86v-526h-47v489l-199 -289l-14 -4l-213 293v-489h-50z" />
<glyph unicode="&#x2122;" horiz-adv-x="1705" d="M264 1391h12l97 -97h69v-389h13l96 -96h86v485h170v-389h12l96 -96h78v410l88 -121l9 2l96 -96l28 8l68 96v-203h12l97 -96h75v555l-96 96v13h-119l-147 -224l-78 115l-82 80l-18 29h-119v-105l-92 92v13h-451v-82zM285 1411v41h409v-41h-174v-485h-57v485h-178zM827 926 v526h88l181 -256l168 256h86v-526h-47v489l-199 -289l-14 -4l-213 293v-489h-50z" />
<glyph unicode="&#xa2;" d="M70 528q0 -262 131 -417q20 -25 39.5 -43.5t35.5 -30.5l58 -53q45 -41 82 -64v-127h12l96 -96h103v59l59 -59h102v176q264 70 302 381l-99 96v6q2 2 2 6h-102q-18 -135 -103 -225v101l-96 96v12h-114v-59l-48 47v12h-114v-272l-35 17q-18 9 -37 20q-72 121 -72 315 q0 225 105 358l19 23q9 10 20 18v-96h12l96 -96h103v59l59 -59h102v256q4 -2 13.5 -6t19.5 -9q41 -61 56 -143h12l96 -96h94q-20 160 -114 250l-60 57q-10 18 -28 37l-33 33l-56 37v157l-96 97v12h-114v-60l-48 48v12h-114v-228q-131 -39 -215 -139q-131 -156 -131 -420z M90 528q0 197 78 340q88 162 268 203v223h74v-211q6 2 22 2h46q14 0 20 -2v211h74v-221q252 -57 289 -321h-66q-33 205 -223 260v-262h-74v276q-6 2 -20 2h-46q-16 0 -22 -2v-276h-74v262q-145 -43 -219 -191q-61 -123 -61 -293q0 -258 135 -395q63 -63 145 -88v281h74v-295 q6 -2 22 -2h46q14 0 20 2v295h74v-281q68 20 123 70q96 84 114 227h62q-14 -135 -92 -231.5t-207 -122.5v-174h-74v163q-6 -2 -23 -2h-65v-161h-74v174q-174 33 -266 202q-80 143 -80 338z" />
<glyph unicode="&#xa5;" horiz-adv-x="1085" d="M-35 1493l475 -776h-334v-105h13l96 -96h272v-154h-381v-104h13l96 -96h272v-180h13l96 -97h96v277h379v92l-96 96v12h-283v154h379v92l-96 97v12h-176l411 667l-98 97l8 12h-129l-432 -707l-369 598l-81 82l-17 27h-127zM2 1473h78l465 -752l459 752h77l-477 -777h350 v-63h-379v-291h379v-63h-379v-279h-67v279h-381v63h381v291h-381v63h352z" />
<glyph unicode="&#xa9;" horiz-adv-x="1705" d="M322 719q0 -217 153 -377q27 -31 55 -49l52 -49q158 -152 372 -152q221 0 373 152q154 150 154 372q0 223 -146 369l-45 45q-10 10 -24.5 27.5l-34.5 40.5q-158 152 -379 151q-217 0 -373 -153q-157 -154 -157 -377zM342 719q0 213 147 360q150 150 363 150 q219 0 365 -146q147 -145 147 -364q0 -215 -150 -363q-147 -147 -362 -147t-365 145q-145 150 -145 365zM406 719q0 -137 74.5 -249t203.5 -165q86 -35 168 -35q186 0 317 131t131 318q0 190 -129 317q-127 127 -319 127q-184 0 -315 -131q-131 -129 -131 -313zM522 616 q0 55 10 101q2 -160 72 -262q31 -49 76 -76l63 -64q2 -2 4.5 -5t6.5 -7q-88 23 -168 82q-64 100 -64 231zM553 729q0 164 70 264q80 117 237 117q203 0 266 -180l-59 -33q-49 152 -211 152q-121 0 -186 -103q-51 -84 -52 -217q0 -133 50 -215q57 -100 184 -100 q180 0 221 176l60 -31q-23 -86 -80 -137q-78 -70 -197 -70q-158 0 -235 115q-68 98 -68 262zM735 627q0 125 49 204q57 100 174 101q39 0 74 -12q8 -14 13.5 -27.5t9.5 -26.5l8 4l98 -96l86 47q-31 80 -73 123l-62 62q-4 6 -7 10t-7 8q57 -20 96 -45q86 -111 86 -260 q0 -121 -63 -223l-62 63q0 8 2 10l-98 52q-39 -186 -207 -187q-51 0 -90 19q-27 65 -27 174z" />
<glyph unicode="&#xad;" horiz-adv-x="1234" d="M233 559h13l96 -96h817v90l-96 96v13h-830v-103zM254 580v61h788v-61h-788z" />
<glyph unicode="&#xae;" horiz-adv-x="1449" d="M322 719q0 -217 153 -377q27 -31 55 -49l52 -49q158 -152 372 -152q221 0 373 152q154 150 154 372q0 223 -146 369l-45 45q-10 10 -24.5 27.5l-34.5 40.5q-152 152 -379 151q-217 0 -373 -153q-157 -154 -157 -377zM342 719q0 213 147 360q150 150 363 150 q219 0 365 -146q147 -145 147 -364q0 -215 -150 -363q-147 -147 -362 -147t-365 145q-145 150 -145 365zM406 719q0 -68 20 -131.5t57 -116.5t88.5 -96t112.5 -70q86 -35 168 -35q68 0 131.5 19.5t117.5 56.5t97 88t70 113q33 74 32 172q0 190 -129 317q-127 127 -319 127 q-188 0 -317 -129q-129 -127 -129 -315zM522 616q0 166 99 277v-531q-2 0 -31 23q-68 106 -68 231zM641 367v727h244q252 0 252 -199q0 -121 -95 -170q57 -33 68 -119v-239h-70v170q0 115 -47 143q-23 14 -96 14h-190v-327h-66zM707 756h194q170 0 170 137q0 113 -102 131 q-35 6 -84 6h-178v-274zM823 291v287h193q2 -10 3 -20.5t1 -20.5v-191h12l10 -10q-88 -45 -190 -45h-29zM823 776v137h164q20 0 35.5 -1t28.5 -3v-16q0 -117 -150 -117h-78zM1128 1012q39 -14 66 -33q86 -111 86 -260q0 -119 -53 -209q-10 68 -45 102l-11 11q82 51 82 170 q0 94 -53 147l-65 64q-2 2 -3.5 4t-3.5 4z" />
<glyph unicode="&#xb4;" horiz-adv-x="1024" d="M358 1176h19l96 -97h145l226 357l-99 96l9 12h-160zM397 1196l209 328h109l-207 -328h-111z" />
<glyph unicode="&#x2000;" horiz-adv-x="868" />
<glyph unicode="&#x2001;" horiz-adv-x="1738" />
<glyph unicode="&#x2002;" horiz-adv-x="868" />
<glyph unicode="&#x2003;" horiz-adv-x="1738" />
<glyph unicode="&#x2004;" horiz-adv-x="579" />
<glyph unicode="&#x2005;" horiz-adv-x="434" />
<glyph unicode="&#x2006;" horiz-adv-x="288" />
<glyph unicode="&#x2007;" horiz-adv-x="288" />
<glyph unicode="&#x2008;" horiz-adv-x="217" />
<glyph unicode="&#x2009;" horiz-adv-x="346" />
<glyph unicode="&#x200a;" horiz-adv-x="96" />
<glyph unicode="&#x2010;" horiz-adv-x="1234" d="M233 559h13l96 -96h817v90l-96 96v13h-830v-103zM254 580v61h788v-61h-788z" />
<glyph unicode="&#x2011;" horiz-adv-x="1234" d="M233 559h13l96 -96h817v90l-96 96v13h-830v-103zM254 580v61h788v-61h-788z" />
<glyph unicode="&#x2012;" horiz-adv-x="1234" d="M233 559h13l96 -96h817v90l-96 96v13h-830v-103zM254 580v61h788v-61h-788z" />
<glyph unicode="&#x202f;" horiz-adv-x="346" />
<glyph unicode="&#x205f;" horiz-adv-x="434" />
<glyph unicode="&#x20ac;" horiz-adv-x="1394" d="M57 573h15l96 -96h88q51 -338 229 -452l56 -54q100 -100 252 -100q170 0 278 121q94 106 127 282l-98 97v4q2 2 2 4l-94 74q-61 -371 -324 -371q-78 0 -135 39q-41 68 -70 190q-10 37 -17 78t-11 88h444l31 92l-99 97l4 12h-385v29q2 8 3 14v12h536l31 90l-98 99l4 10 h-449q8 35 20.5 73.5t32.5 81.5q96 207 267 207q68 0 122 -26q43 -57 80 -193l9 6l98 -98l88 61q-39 158 -115 234l-10 10q-4 4 -6 8l-4 2l2 -2l-53 56q-4 4 -10.5 13t-16.5 19q-115 127 -277 127q-242 0 -360 -245q-63 -125 -92 -334h-127l-35 -103h14l97 -96h43v-55h-152z M86 594l18 63h156v134v30q0 14 2 29h-147l20 61h133q10 100 33 187.5t57 158.5q113 233 342 234q143 0 244 -100q86 -86 127 -238l-61 -43q-72 301 -320 301q-184 0 -278 -215q-55 -127 -74 -285h555l-21 -61h-538q-2 -29 -3 -58.5t-1 -58.5v-76h473l-21 -63h-448 q16 -190 74 -322q94 -211 276 -211q279 0 338 355l57 -45q-29 -170 -123 -271q-104 -113 -266 -112q-221 0 -334 227q-76 154 -92 379h-178zM1036 1315q2 0 2 -2z" />
<glyph unicode="&#xe000;" horiz-adv-x="1085" d="M0 1085h1085v-1085h-1085v1085z" />
<glyph unicode="&#xfb01;" horiz-adv-x="790" d="M547 1393q0 -102 45 -117l88 -86q12 -12 33 -12q59 0 59 112q0 74 -25 99l-84 84q-16 37 -53 36q-63 1 -63 -116zM559 -18h12l97 -97h92v1090l-97 96v12h-104v-1101zM567 1393q0 96 43 96q45 0 45 -96q0 -98 -45 -99q-43 1 -43 99zM579 0v1063h64v-1063h-64zM78 -18h12 l96 -97h93v1002h208v88l-96 96v12h-112v29q0 109 16 145q29 53 115 54h192v84l-96 96v12l-209 -2q-137 -2 -186 -86v2q-33 -57 -33 -205v-1230zM98 0v1212q0 139 31 193q39 72 168 76l188 2v-56h-178q-100 0 -127 -61q-18 -41 -18 -152v-151h209v-59h-209v-1004h-64z" />
<glyph unicode="&#xfb02;" horiz-adv-x="790" d="M559 -18h12l97 -97h92v1497l-97 97v12h-104v-1509zM579 0v1470h64v-1470h-64zM78 -18h12l96 -97h93v1002h208v88l-96 96v12h-112v29q0 109 16 145q29 53 115 54h192v84l-96 96v12l-209 -2q-137 -2 -186 -86v2q-33 -57 -33 -205v-1230zM98 0v1212q0 139 31 193 q39 72 168 76l188 2v-56h-178q-100 0 -127 -61q-18 -41 -18 -152v-151h209v-59h-209v-1004h-64z" />
<glyph unicode="&#xfb03;" horiz-adv-x="1222" d="M979 1393q0 -102 45 -117l88 -86q12 -12 33 -12q59 0 59 112q0 74 -25 99l-84 84q-16 37 -53 36q-63 1 -63 -116zM991 -18h12l97 -97h92v1090l-97 96v12h-104v-1101zM999 1393q0 96 43 96q45 0 45 -96q0 -98 -45 -99q-43 1 -43 99zM1011 0v1063h64v-1063h-64zM510 -18h12 l96 -97h93v1002h208v88l-96 96v12h-112v29q0 109 16 145q29 53 115 54h192v84l-96 96v12l-209 -2q-137 -2 -186 -86v2q-33 -57 -33 -205v-1230zM530 0v1212q0 139 31 193q39 72 168 76l188 2v-56h-178q-100 0 -127 -61q-18 -41 -18 -152v-151h209v-59h-209v-1004h-64z M78 -18h12l96 -97h93v1002h208v88l-96 96v12h-112v29q0 109 16 145q29 53 115 54h192v84l-96 96v12l-209 -2q-137 -2 -186 -86v2q-33 -57 -33 -205v-1230zM98 0v1212q0 139 31 193q39 72 168 76l188 2v-56h-178q-100 0 -127 -61q-18 -41 -18 -152v-151h209v-59h-209v-1004 h-64z" />
<glyph unicode="&#xfb04;" horiz-adv-x="1222" d="M991 -18h12l97 -97h92v1497l-97 97v12h-104v-1509zM1011 0v1470h64v-1470h-64zM510 -18h12l96 -97h93v1002h208v88l-96 96v12h-112v29q0 109 16 145q29 53 115 54h192v84l-96 96v12l-209 -2q-137 -2 -186 -86v2q-33 -57 -33 -205v-1230zM530 0v1212q0 139 31 193 q39 72 168 76l188 2v-56h-178q-100 0 -127 -61q-18 -41 -18 -152v-151h209v-59h-209v-1004h-64zM78 -18h12l96 -97h93v1002h208v88l-96 96v12h-112v29q0 109 16 145q29 53 115 54h192v84l-96 96v12l-209 -2q-137 -2 -186 -86v2q-33 -57 -33 -205v-1230zM98 0v1212 q0 139 31 193q39 72 168 76l188 2v-56h-178q-100 0 -127 -61q-18 -41 -18 -152v-151h209v-59h-209v-1004h-64z" />
</font>
</defs>
</svg>
